<svg xmlns="http://www.w3.org/2000/svg" version="1.1" xmlns:xlink="http://www.w3.org/1999/xlink"
    xmlns:svgjs="http://svgjs.dev/svgjs" width="128" height="128" viewBox="0 0 128 128">
    <g transform="matrix(0.8046875,0,0,0.8046875,12.333870967741937,12.333870967741937)"><svg viewBox="0 0 155 155"
            data-background-color="#ffffff" preserveAspectRatio="xMidYMid meet" height="128" width="128"
            xmlns="http://www.w3.org/2000/svg" xmlns:xlink="http://www.w3.org/1999/xlink">
            <g id="tight-bounds" transform="matrix(1,0,0,1,0.25,0.25)"><svg viewBox="0 0 154.5 154.5" height="154.5"
                    width="154.5">
                    <g><svg></svg></g>
                    <g><svg viewBox="0 0 154.5 154.5" height="154.5" width="154.5">
                            <g transform="matrix(1,0,0,1,59.016757278,59.016757278)"><svg
                                    viewBox="0 0 36.46648544399999 36.46648544399999" height="36.46648544399999"
                                    width="36.46648544399999">
                                    <g><svg viewBox="0 0 36.46648544399999 36.46648544399999" height="36.46648544399999"
                                            width="36.46648544399999">
                                            <g><svg viewBox="0 0 36.46648544399999 36.46648544399999"
                                                    height="36.46648544399999" width="36.46648544399999">
                                                    <g id="textblocktransform"><svg
                                                            viewBox="0 0 36.46648544399999 36.46648544399999"
                                                            height="36.46648544399999" width="36.46648544399999"
                                                            id="textblock">
                                                            <g><svg viewBox="0 0 36.46648544399999 36.46648544399999"
                                                                    height="36.46648544399999"
                                                                    width="36.46648544399999">
                                                                    <g><svg viewBox="0 0 36.46648544399999 36.46648544399999"
                                                                            height="36.46648544399999"
                                                                            width="36.46648544399999">
                                                                            <g><svg xmlns="http://www.w3.org/2000/svg"
                                                                                    xmlns:xlink="http://www.w3.org/1999/xlink"
                                                                                    version="1.1" baseProfile="tiny"
                                                                                    x="0" y="0" viewBox="0 0 100 100"
                                                                                    xml:space="preserve"
                                                                                    height="36.46648544399999"
                                                                                    width="36.46648544399999"
                                                                                    class="icon-icon-0"
                                                                                    data-fill-palette-color="accent"
                                                                                    id="icon-0">
                                                                                    <path
                                                                                        d="M100 52.993v-6.004H53.466v-3.947h45.905c0 0-3.666-37.641-41.991-42.47v34.642h31.661c0 0-5.333-14.49-13.331-17.821v11.992H63.546V8.566c0 0 22.161 3.165 29.327 29.313l-39.407-0.232V0h-6.005v37.611L8.058 37.379c0 0 5.331-23.317 29.826-29.812l-0.333 21.818H25.554V17.061c0 0-9.998 4.996-13.997 18.154H43.05V0.739c0 0-37.326 5.496-42.491 42.303h46.902v3.947H0v6.004h47.461v4.537H0.642c5.166 36.806 42.492 42.302 42.492 42.302V65.357H11.64c3.999 13.158 13.997 18.154 13.997 18.154V71.187h11.998l0.333 21.818C13.473 86.51 8.141 63.192 8.141 63.192l39.32-0.231v36.988h6.005V62.925l39.49-0.231c-7.165 26.147-29.327 29.313-29.327 29.313V71.187h12.165v11.991c7.998-3.33 13.33-17.819 13.33-17.819H57.463V100c38.326-4.829 41.992-42.47 41.992-42.47H53.466v-4.537H100z"
                                                                                        fill="#2461e7"
                                                                                        data-fill-palette-color="accent">
                                                                                    </path>
                                                                                </svg></g>
                                                                        </svg></g>
                                                                </svg></g>
                                                        </svg></g>
                                                </svg></g>
                                            <g></g>
                                        </svg></g>
                                </svg></g>
                            <g></g>
                        </svg></g>
                    <defs></defs>
                </svg>
                <rect width="154.5" height="154.5" fill="none" stroke="none" visibility="hidden"></rect>
            </g>
        </svg></g>
</svg>