<svg xmlns="http://www.w3.org/2000/svg" version="1.1" xmlns:xlink="http://www.w3.org/1999/xlink"
    xmlns:svgjs="http://svgjs.dev/svgjs" width="800" height="623" viewBox="0 0 1000 623">
    <g transform="matrix(1,0,0,1,-0.6060606060606233,47.84438678280782)"><svg viewBox="0 0 396 247"
            data-background-color="#ffffff" preserveAspectRatio="xMidYMid meet" height="623" width="1000"
            xmlns="http://www.w3.org/2000/svg" xmlns:xlink="http://www.w3.org/1999/xlink">
            <g id="tight-bounds" transform="matrix(1,0,0,1,0.2400000000000091,-0.09999999999999432)"><svg
                    viewBox="0 0 395.52 247.2" height="247.2" width="395.52">
                    <g><svg></svg></g>
                    <g><svg viewBox="0 0 395.52 247.2" height="247.2" width="395.52">
                            <g transform="matrix(1,0,0,1,95.38560508951373,47.215199999999996)"><svg
                                    viewBox="0 0 204.74878982097252 152.7696" height="152.7696"
                                    width="204.74878982097252">
                                    <g><svg viewBox="0 0 244.43135999999998 182.3780307923025" height="152.7696"
                                            width="204.74878982097252">
                                            <g transform="matrix(1,0,0,1,0,109.76464607125584)"><svg
                                                    viewBox="0 0 244.43135999999998 72.61338472104666"
                                                    height="72.61338472104666" width="244.43135999999998">
                                                    <g id="textblocktransform"><svg
                                                            viewBox="0 0 244.43135999999998 72.61338472104666"
                                                            height="72.61338472104666" width="244.43135999999998"
                                                            id="textblock">
                                                            <g><svg viewBox="0 0 244.43135999999998 39.87253421258134"
                                                                    height="39.87253421258134"
                                                                    width="244.43135999999998">
                                                                    <g transform="matrix(1,0,0,1,0,0)"><svg
                                                                            width="244.43135999999998"
                                                                            viewBox="4.400000095367432 -37.099998474121094 230.49000549316406 37.599998474121094"
                                                                            height="39.87253421258134"
                                                                            data-palette-color="#2461e7">
                                                                            <path
                                                                                d="M5.15 0L5.15 0Q4.8 0 4.6-0.2 4.4-0.4 4.4-0.7L4.4-0.7 4.4-36.25Q4.4-36.65 4.63-36.88 4.85-37.1 5.2-37.1L5.2-37.1 17.35-37.1Q24.25-37.1 27.95-34.65 31.65-32.2 31.65-27.45L31.65-27.45Q31.65-24.5 30.1-22.5 28.55-20.5 25.1-19.2L25.1-19.2Q24.9-19.15 24.9-18.98 24.9-18.8 25.1-18.75L25.1-18.75Q28.8-17.75 30.68-15.63 32.55-13.5 32.55-9.95L32.55-9.95Q32.55-4.9 28.78-2.45 25 0 17.8 0L17.8 0 5.15 0ZM11-4.25L17.55-4.25Q21.95-4.25 24.1-5.78 26.25-7.3 26.25-10.3L26.25-10.3Q26.25-12.5 25.18-13.88 24.1-15.25 22.25-15.9 20.4-16.55 18.05-16.55L18.05-16.55 11.25-16.55Q10.45-16.55 10.45-15.9L10.45-15.9 10.45-5Q10.45-4.25 11-4.25L11-4.25ZM11-20.95L18.05-20.95Q19.45-20.95 20.78-21.23 22.1-21.5 23.2-22.18 24.3-22.85 24.95-23.98 25.6-25.1 25.6-26.75L25.6-26.75Q25.6-29.8 23.38-31.33 21.15-32.85 17.45-32.85L17.45-32.85 11.2-32.85Q10.45-32.85 10.45-32.2L10.45-32.2 10.45-21.65Q10.45-20.95 11-20.95L11-20.95ZM67-12.8L67-12.8Q67-8.1 65.4-5.15 63.8-2.2 60.7-0.85 57.6 0.5 53.15 0.5L53.15 0.5Q48.25 0.5 45.2-1.07 42.15-2.65 40.72-5.8 39.3-8.95 39.3-13.65L39.3-13.65 39.3-36.3Q39.3-37.1 39.95-37.1L39.95-37.1 44.7-37.1Q45.35-37.1 45.35-36.35L45.35-36.35 45.35-12.6Q45.35-8.2 47.45-6.1 49.55-4 53.6-4L53.6-4Q56.25-4 58.12-4.9 60-5.8 61-7.75 62-9.7 62-12.75L62-12.75 62-36.35Q62-37.1 62.6-37.1L62.6-37.1 66.4-37.1Q67-37.1 67-36.4L67-36.4 67-12.8ZM75.4-36.35L75.4-36.35Q75.4-37.1 76.09-37.1L76.09-37.1 99.4-37.1Q100-37.1 100-36.45L100-36.45 99.95-33.3Q99.95-32.55 99.2-32.55L99.2-32.55 82.2-32.55Q81.45-32.55 81.45-31.9L81.45-31.9 81.45-21.6Q81.45-20.95 82.09-20.95L82.09-20.95 94.3-20.95Q94.95-20.95 94.95-20.35L94.95-20.35 94.95-17Q94.95-16.75 94.82-16.6 94.7-16.45 94.3-16.45L94.3-16.45 82.05-16.45Q81.45-16.45 81.45-15.9L81.45-15.9 81.45-5.1Q81.45-4.55 81.95-4.55L81.95-4.55 99.9-4.55Q100.59-4.55 100.59-3.95L100.59-3.95 100.59-0.65Q100.59-0.35 100.45-0.18 100.3 0 99.9 0L99.9 0 76.25 0Q75.4 0 75.4-0.8L75.4-0.8 75.4-36.35ZM134.84-1.05L134.84-1.05Q134.99-0.65 134.82-0.33 134.64 0 134.24 0L134.24 0 129.39 0Q128.79 0 128.49-0.7L128.49-0.7 122.39-15.9Q122.14-16.5 121.14-16.5L121.14-16.5 113.84-16.5Q113.49-16.5 113.37-16.32 113.24-16.15 113.24-15.95L113.24-15.95 113.24-0.9Q113.24 0 112.29 0L112.29 0 108.04 0Q107.54 0 107.37-0.2 107.19-0.4 107.19-0.8L107.19-0.8 107.19-36.35Q107.19-37.1 107.89-37.1L107.89-37.1 122.34-37.1Q128.49-37.1 131.92-34.6 135.34-32.1 135.34-27.3L135.34-27.3Q135.34-24.55 134.29-22.58 133.24-20.6 131.62-19.38 129.99-18.15 128.14-17.6L128.14-17.6Q127.79-17.45 127.94-17L127.94-17 134.84-1.05ZM121.14-20.75L121.14-20.75Q125.04-20.75 127.07-22.23 129.09-23.7 129.09-26.85L129.09-26.85Q129.09-29.85 127.24-31.35 125.39-32.85 121.99-32.85L121.99-32.85 114.04-32.85Q113.24-32.85 113.24-32.25L113.24-32.25 113.24-21.45Q113.24-20.75 113.79-20.75L113.79-20.75 121.14-20.75ZM143.24-37.1L143.24-37.1Q143.79-37.1 145.02-37.1 146.24-37.1 147.67-37.08 149.09-37.05 150.31-37.05 151.54-37.05 152.14-37.05L152.14-37.05Q158.99-36.95 163.29-34.77 167.59-32.6 169.62-28.6 171.64-24.6 171.64-18.8L171.64-18.8Q171.64-12.7 169.47-8.5 167.29-4.3 162.87-2.15 158.44 0 151.69 0L151.69 0 143.29 0Q142.39 0 142.39-0.9L142.39-0.9 142.39-36.3Q142.39-36.75 142.59-36.93 142.79-37.1 143.24-37.1L143.24-37.1ZM148.94-32.65L148.94-32.65Q148.44-32.65 148.44-31.95L148.44-31.95 148.44-5Q148.44-4.4 149.04-4.4L149.04-4.4 150.69-4.4Q155.74-4.4 158.99-5.8 162.24-7.2 163.79-10.33 165.34-13.45 165.34-18.6L165.34-18.6Q165.34-23.9 163.79-26.95 162.24-30 159.06-31.33 155.89-32.65 150.99-32.65L150.99-32.65 148.94-32.65ZM178.94-36.35L178.94-36.35Q178.94-37.1 179.64-37.1L179.64-37.1 202.94-37.1Q203.54-37.1 203.54-36.45L203.54-36.45 203.49-33.3Q203.49-32.55 202.74-32.55L202.74-32.55 185.74-32.55Q184.99-32.55 184.99-31.9L184.99-31.9 184.99-21.6Q184.99-20.95 185.64-20.95L185.64-20.95 197.84-20.95Q198.49-20.95 198.49-20.35L198.49-20.35 198.49-17Q198.49-16.75 198.36-16.6 198.24-16.45 197.84-16.45L197.84-16.45 185.59-16.45Q184.99-16.45 184.99-15.9L184.99-15.9 184.99-5.1Q184.99-4.55 185.49-4.55L185.49-4.55 203.44-4.55Q204.14-4.55 204.14-3.95L204.14-3.95 204.14-0.65Q204.14-0.35 203.99-0.18 203.84 0 203.44 0L203.44 0 179.79 0Q178.94 0 178.94-0.8L178.94-0.8 178.94-36.35ZM210.74-36.35L210.74-36.35Q210.74-37.1 211.44-37.1L211.44-37.1 216.14-37.1Q216.79-37.1 216.79-36.35L216.79-36.35 216.79-5.1Q216.79-4.55 217.29-4.55L217.29-4.55 234.19-4.55Q234.89-4.55 234.89-3.95L234.89-3.95 234.89-0.65Q234.89-0.35 234.71-0.18 234.54 0 234.19 0L234.19 0 211.59 0Q211.09 0 210.91-0.2 210.74-0.4 210.74-0.8L210.74-0.8 210.74-36.35Z"
                                                                                opacity="1"
                                                                                transform="matrix(1,0,0,1,0,0)"
                                                                                fill="#2461e7" class="wordmark-text-0"
                                                                                data-fill-palette-color="primary"
                                                                                id="text-0"></path>
                                                                        </svg></g>
                                                                </svg></g>
                                                            <g
                                                                transform="matrix(1,0,0,1,46.68638976,49.28548259935069)">
                                                                <svg viewBox="0 0 151.05858048 23.327902121695963"
                                                                    height="23.327902121695963" width="151.05858048">
                                                                    <g transform="matrix(1,0,0,1,0,0)"><svg
                                                                            width="151.05858048"
                                                                            viewBox="1.7999999523162842 -36.150001525878906 290.08001708984375 44.80000305175781"
                                                                            height="23.327902121695963"
                                                                            data-palette-color="#2461e7">
                                                                            <path
                                                                                d="M12.2 0.6Q7.2 0.6 4.5-2.78 1.8-6.15 1.8-13.15L1.8-13.15Q1.8-20.05 4.5-23.48 7.2-26.9 11.85-26.9L11.85-26.9Q17.3-26.9 19.8-23.3L19.8-23.3 20.1-23.3 20.1-36.15 25.25-36.15 25.25 0 21.15 0 20.65-3.5 20.3-3.5Q19.05-1.5 16.93-0.45 14.8 0.6 12.2 0.6L12.2 0.6ZM13.65-3.75Q17-3.75 18.55-6.05 20.1-8.35 20.1-12.85L20.1-12.85 20.1-13.25Q20.1-22.55 13.65-22.55L13.65-22.55Q10.1-22.55 8.6-20.43 7.1-18.3 7.1-13.3L7.1-13.3 7.1-12.85Q7.1-7.95 8.6-5.85 10.1-3.75 13.65-3.75L13.65-3.75ZM43.1 0.6Q36.75 0.6 33.65-2.75 30.55-6.1 30.55-13.15L30.55-13.15Q30.55-20.2 33.65-23.55 36.75-26.9 43.1-26.9L43.1-26.9Q48.85-26.9 51.7-23.78 54.55-20.65 54.55-13.85L54.55-13.85 54.55-11.85 35.85-11.85Q36.05-7.6 37.77-5.58 39.5-3.55 43.15-3.55L43.15-3.55Q46-3.55 47.75-4.9 49.5-6.25 49.5-9.05L49.5-9.05 54.55-9.05Q54.55-4.35 51.37-1.88 48.2 0.6 43.1 0.6L43.1 0.6ZM35.95-15.75L49.2-15.75Q49.2-22.75 43.1-22.75L43.1-22.75Q39.7-22.75 38-21.08 36.3-19.4 35.95-15.75L35.95-15.75ZM66.75 0L57.05-26.3 62.45-26.3 66.95-13.7Q67.85-11.2 69.4-5.55L69.4-5.55 69.65-5.55Q71.1-10.9 72.1-13.7L72.1-13.7 76.55-26.3 81.7-26.3 72 0 66.75 0ZM96.74 0.6Q90.39 0.6 87.29-2.75 84.19-6.1 84.19-13.15L84.19-13.15Q84.19-20.2 87.29-23.55 90.39-26.9 96.74-26.9L96.74-26.9Q102.49-26.9 105.34-23.78 108.19-20.65 108.19-13.85L108.19-13.85 108.19-11.85 89.49-11.85Q89.69-7.6 91.42-5.58 93.14-3.55 96.79-3.55L96.79-3.55Q99.64-3.55 101.39-4.9 103.14-6.25 103.14-9.05L103.14-9.05 108.19-9.05Q108.19-4.35 105.02-1.88 101.84 0.6 96.74 0.6L96.74 0.6ZM89.59-15.75L102.84-15.75Q102.84-22.75 96.74-22.75L96.74-22.75Q93.34-22.75 91.64-21.08 89.94-19.4 89.59-15.75L89.59-15.75ZM113.49 0L113.49-36.15 118.64-36.15 118.64 0 113.49 0ZM136.34 0.6Q130.09 0.6 126.96-2.78 123.84-6.15 123.84-13.15L123.84-13.15Q123.84-20.15 126.96-23.53 130.09-26.9 136.34-26.9L136.34-26.9Q142.59-26.9 145.74-23.53 148.89-20.15 148.89-13.15L148.89-13.15Q148.89-6.15 145.74-2.78 142.59 0.6 136.34 0.6L136.34 0.6ZM136.34-3.65Q140.14-3.65 141.86-5.88 143.59-8.1 143.59-12.9L143.59-12.9 143.59-13.4Q143.59-18.2 141.86-20.43 140.14-22.65 136.34-22.65L136.34-22.65Q132.59-22.65 130.86-20.43 129.14-18.2 129.14-13.4L129.14-13.4 129.14-12.9Q129.14-8.1 130.86-5.88 132.59-3.65 136.34-3.65L136.34-3.65ZM154.09 8.65L154.09-26.3 158.19-26.3 158.69-22.8 159.04-22.8Q160.29-24.8 162.41-25.85 164.54-26.9 167.14-26.9L167.14-26.9Q172.14-26.9 174.84-23.53 177.54-20.15 177.54-13.15L177.54-13.15Q177.54-6.25 174.84-2.83 172.14 0.6 167.49 0.6L167.49 0.6Q162.04 0.6 159.54-3L159.54-3 159.24-3 159.24 8.65 154.09 8.65ZM165.69-3.75Q169.24-3.75 170.74-5.85 172.24-7.95 172.24-12.85L172.24-12.85 172.24-13.3Q172.24-18.3 170.74-20.43 169.24-22.55 165.69-22.55L165.69-22.55Q162.34-22.55 160.79-20.2 159.24-17.85 159.24-13.3L159.24-13.3 159.24-12.9Q159.24-8.4 160.79-6.08 162.34-3.75 165.69-3.75L165.69-3.75ZM182.73 0L182.73-26.3 186.88-26.3 187.38-22.8 187.73-22.8Q189.08-24.8 191.03-25.85 192.98-26.9 195.48-26.9L195.48-26.9Q200.58-26.9 202.33-22.8L202.33-22.8 202.63-22.8Q203.98-24.75 206.08-25.83 208.18-26.9 210.68-26.9L210.68-26.9Q214.38-26.9 216.48-24.93 218.58-22.95 218.58-18.55L218.58-18.55 218.58 0 213.43 0 213.43-17.55Q213.43-20.25 212.26-21.38 211.08-22.5 208.98-22.5L208.98-22.5Q206.53-22.5 204.88-20.55 203.23-18.6 203.23-15.45L203.23-15.45 203.23 0 198.08 0 198.08-17.55Q198.08-20.25 196.96-21.38 195.83-22.5 193.73-22.5L193.73-22.5Q191.28-22.5 189.58-20.55 187.88-18.6 187.88-15.45L187.88-15.45 187.88 0 182.73 0ZM236.28 0.6Q229.93 0.6 226.83-2.75 223.73-6.1 223.73-13.15L223.73-13.15Q223.73-20.2 226.83-23.55 229.93-26.9 236.28-26.9L236.28-26.9Q242.03-26.9 244.88-23.78 247.73-20.65 247.73-13.85L247.73-13.85 247.73-11.85 229.03-11.85Q229.23-7.6 230.96-5.58 232.68-3.55 236.33-3.55L236.33-3.55Q239.18-3.55 240.93-4.9 242.68-6.25 242.68-9.05L242.68-9.05 247.73-9.05Q247.73-4.35 244.56-1.88 241.38 0.6 236.28 0.6L236.28 0.6ZM229.13-15.75L242.38-15.75Q242.38-22.75 236.28-22.75L236.28-22.75Q232.88-22.75 231.18-21.08 229.48-19.4 229.13-15.75L229.13-15.75ZM253.03 0L253.03-26.3 257.18-26.3 257.68-22.8 258.03-22.8Q259.43-24.8 261.65-25.85 263.88-26.9 266.68-26.9L266.68-26.9Q275.03-26.9 275.03-17.85L275.03-17.85 275.03 0 269.88 0 269.88-17.2Q269.88-20.15 268.55-21.33 267.23-22.5 264.68-22.5L264.68-22.5Q262.93-22.5 261.43-21.63 259.93-20.75 259.05-19.15 258.18-17.55 258.18-15.45L258.18-15.45 258.18 0 253.03 0ZM287.98 0.55Q284.98 0.55 283.63-1.18 282.28-2.9 282.28-5.45L282.28-5.45 282.28-22.05 279.08-22.05 279.08-26.3 282.33-26.3 283.33-33.65 287.43-33.65 287.43-26.3 291.88-26.3 291.88-22.05 287.43-22.05 287.43-5.95Q287.43-3.65 289.58-3.65L289.58-3.65 291.88-3.65 291.88-0.15Q291.23 0.15 290.1 0.35 288.98 0.55 287.98 0.55L287.98 0.55Z"
                                                                                opacity="1"
                                                                                transform="matrix(1,0,0,1,0,0)"
                                                                                fill="#2461e7" class="slogan-text-1"
                                                                                data-fill-palette-color="secondary"
                                                                                id="text-1"></path>
                                                                        </svg></g>
                                                                </svg></g>
                                                        </svg></g>
                                                </svg></g>
                                            <g transform="matrix(1,0,0,1,64.03983115775675,0)"><svg
                                                    viewBox="0 0 116.35169768448648 100.35169768448648"
                                                    height="100.35169768448648" width="116.35169768448648">
                                                    <g><svg xmlns="http://www.w3.org/2000/svg"
                                                            xmlns:xlink="http://www.w3.org/1999/xlink" version="1.1"
                                                            baseProfile="tiny" x="8" y="0" viewBox="0 0 100 100"
                                                            xml:space="preserve" height="100.35169768448648"
                                                            width="100.35169768448648" class="icon-icon-0"
                                                            data-fill-palette-color="accent" id="icon-0">
                                                            <path
                                                                d="M100 52.993v-6.004H53.466v-3.947h45.905c0 0-3.666-37.641-41.991-42.47v34.642h31.661c0 0-5.333-14.49-13.331-17.821v11.992H63.546V8.566c0 0 22.161 3.165 29.327 29.313l-39.407-0.232V0h-6.005v37.611L8.058 37.379c0 0 5.331-23.317 29.826-29.812l-0.333 21.818H25.554V17.061c0 0-9.998 4.996-13.997 18.154H43.05V0.739c0 0-37.326 5.496-42.491 42.303h46.902v3.947H0v6.004h47.461v4.537H0.642c5.166 36.806 42.492 42.302 42.492 42.302V65.357H11.64c3.999 13.158 13.997 18.154 13.997 18.154V71.187h11.998l0.333 21.818C13.473 86.51 8.141 63.192 8.141 63.192l39.32-0.231v36.988h6.005V62.925l39.49-0.231c-7.165 26.147-29.327 29.313-29.327 29.313V71.187h12.165v11.991c7.998-3.33 13.33-17.819 13.33-17.819H57.463V100c38.326-4.829 41.992-42.47 41.992-42.47H53.466v-4.537H100z"
                                                                fill="#2461e7" data-fill-palette-color="accent"></path>
                                                        </svg></g>
                                                </svg></g>
                                            <g>
                                                <rect width="44.19854606824302" height="3.5957462837458927"
                                                    y="95.7559514007406" x="180.39152884224325" fill="#2461e7"
                                                    data-fill-palette-color="accent"></rect>
                                                <rect width="44.19854606824302" height="3.5957462837458927"
                                                    y="95.7559514007406" x="19.841285089513732" fill="#2461e7"
                                                    data-fill-palette-color="accent"></rect>
                                                <rect width="44.19854606824302" height="3.5957462837458927"
                                                    y="88.5644588332488" x="180.39152884224325" fill="#2461e7"
                                                    data-fill-palette-color="accent"></rect>
                                                <rect width="44.19854606824302" height="3.5957462837458927"
                                                    y="88.5644588332488" x="19.841285089513732" fill="#2461e7"
                                                    data-fill-palette-color="accent"></rect>
                                            </g>
                                        </svg></g>
                                </svg></g>
                            <g>
                                <path
                                    d="M139.63 39.33A102.374 102.374 0 0 1 255.89 39.33L252.878 39.33A99.362 99.362 0 0 0 142.642 39.33L139.63 39.33M139.63 207.87A102.374 102.374 0 0 0 255.89 207.87L252.878 207.87A99.362 99.362 0 0 1 142.642 207.87L139.63 207.87"
                                    fill="#2461e7" stroke="transparent" data-fill-palette-color="tertiary"></path>
                            </g>
                        </svg></g>
                    <defs></defs>
                </svg>
                <rect width="395.52" height="247.2" fill="none" stroke="none" visibility="hidden"></rect>
            </g>
        </svg></g>
</svg>